# xmcd CD database file
# Copyright (C) 1995-1998 Ti Kan
#
# Track frame offsets:
#	150
#	15730
#	29682
#	55198
#	69433
#	83111
#	98523
#	111847
#	124795
#	138580
#	161305
#	181156
#	202539
#	234779
#
# Disc length: 3397 seconds
#
# Revision: 2
# Processed by: cddbd v1.5.2PL0 Copyright (c) Steve Scherf et al.
# Submitted via: CDex 1.30Release
#
DISCID=a60d430e
DTITLE=Claudia Bettinaglio - Saving all my love
DYEAR=1900
DGENRE=Blues
TTITLE0=Fumblin' with the blues
TTITLE1=Clap hands
TTITLE2=Invitation to the blues
TTITLE3=Heartattack+Vine
TTITLE4=Jockey foll of bourbon
TTITLE5=Ice cream man
TTITLE6=Wrong side of the road
TTITLE7=Saving all my love for you
TTITLE8=Romeo is bleeding
TTITLE9=Swordfishtrombones
TTITLE10=Dirt in the ground
TTITLE11=Cold cold ground
TTITLE12=$ 29
TTITLE13=Cold water
EXTD=ID3G:   0
EXTT0=
EXTT1=
EXTT2=
EXTT3=
EXTT4=
EXTT5=
EXTT6=
EXTT7=
EXTT8=
EXTT9=
EXTT10=
EXTT11=
EXTT12=
EXTT13=
PLAYORDER=
